<?xml version="1.0" encoding="UTF-8" standalone="no"?>
<svg
   xmlns:dc="http://purl.org/dc/elements/1.1/"
   xmlns:cc="http://creativecommons.org/ns#"
   xmlns:rdf="http://www.w3.org/1999/02/22-rdf-syntax-ns#"
   xmlns:svg="http://www.w3.org/2000/svg"
   xmlns="http://www.w3.org/2000/svg"
   version="1.1"
   id="svg4145"
   viewBox="0 0 800.00001 800.00001"
   height="800"
   width="800">
  <defs
     id="defs4147" />
  <metadata
     id="metadata4150">
    <rdf:RDF>
      <cc:Work
         rdf:about="">
        <dc:format>image/svg+xml</dc:format>
        <dc:type
           rdf:resource="http://purl.org/dc/dcmitype/StillImage" />
        <dc:title></dc:title>
      </cc:Work>
    </rdf:RDF>
  </metadata>
  <path
     id="path4225"
     d="M 397.0918 195.62305 C 267.9119 195.90279 135.7131 255.16406 0 383.3125 C 266.66381 696.70733 533.33617 668.72721 800 383.3125 C 672.68543 265.54425 542.72857 199.40974 409.58203 195.78125 C 405.4212 195.66786 401.25889 195.61402 397.0918 195.62305 z M 397.91797 252.22852 C 400.94102 252.22197 403.96197 252.25954 406.98047 252.3418 C 503.57258 254.97413 597.84973 302.9509 690.21094 388.38672 C 496.75775 595.44287 303.29695 615.74124 109.84375 388.38672 C 208.29771 295.42052 304.20342 252.43142 397.91797 252.22852 z M 401.02539 283.05078 A 120.24573 120.24573 0 0 0 280.77539 403.30273 A 120.24573 120.24573 0 0 0 401.02539 523.55273 A 120.24573 120.24573 0 0 0 521.27734 403.30273 A 120.24573 120.24573 0 0 0 517.44727 373.58203 L 401.02539 403.30273 C 401.02539 403.30273 451.24202 333.56636 471.62305 306.11914 A 120.24573 120.24573 0 0 0 401.02539 283.05078 z "
     style="color:#000000;clip-rule:nonzero;display:inline;overflow:visible;visibility:visible;opacity:1;isolation:auto;mix-blend-mode:normal;color-interpolation:sRGB;color-interpolation-filters:linearRGB;solid-color:#000000;solid-opacity:1;fill:#404040;fill-opacity:1;fill-rule:nonzero;stroke:none;stroke-width:0.40000001;stroke-miterlimit:4;stroke-dasharray:none;stroke-opacity:1;color-rendering:auto;image-rendering:auto;shape-rendering:auto;text-rendering:auto;enable-background:accumulate" />
</svg>
